HIERARCHY
ROOT Hips
{
  OFFSET 30.4484 99.9731 -330.408
  CHANNELS 6 Xposition Yposition Zposition Zrotation Xrotation Yrotation
  JOINT ToSpine
  {
    OFFSET -0.0105055 1.38907 -7.13956
    CHANNELS 3 Zrotation Xrotation Yrotation
    JOINT Spine
    {
      OFFSET 0.0105055 10 1
      CHANNELS 3 Zrotation Xrotation Yrotation
      JOINT Spine1
      {
        OFFSET 0 12 1.60637
        CHANNELS 3 Zrotation Xrotation Yrotation
        JOINT Neck
        {
          OFFSET 0 27 2.26658
          CHANNELS 3 Zrotation Xrotation Yrotation
          JOINT Head
          {
            OFFSET 0 9 2.12705
            CHANNELS 3 Zrotation Xrotation Yrotation
            End Site
            {
              OFFSET 0 11 2
            }
          }
        }
        JOINT LeftShoulder
        {
          OFFSET 8 19.6109 2.86452
          CHANNELS 3 Zrotation Xrotation Yrotation
          JOINT LeftArm
          {
            OFFSET 12 1 0.681055
            CHANNELS 3 Zrotation Xrotation Yrotation
            JOINT LeftForeArm
            {
              OFFSET 19 0 -1.52608
              CHANNELS 3 Zrotation Xrotation Yrotation
              JOINT LeftHand
              {
                OFFSET 23 0 0
                CHANNELS 3 Zrotation Xrotation Yrotation
                End Site
                {
                  OFFSET 10 0 0
                }
              }
            }
          }
        }
        JOINT RightShoulder
        {
          OFFSET -8 19.6109 2.86452
          CHANNELS 3 Zrotation Xrotation Yrotation
          JOINT RightArm
          {
            OFFSET -12 1 0.681055
            CHANNELS 3 Zrotation Xrotation Yrotation
            JOINT RightForeArm
            {
              OFFSET -19 0 -1.52608
              CHANNELS 3 Zrotation Xrotation Yrotation
              JOINT RightHand
              {
                OFFSET -23 0 0
                CHANNELS 3 Zrotation Xrotation Yrotation
                End Site
                {
                  OFFSET -10 0 0
                }
              }
            }
          }
        }
      }
    }
  }
  JOINT LeftUpLeg
  {
    OFFSET 9 -7.17245 0
    CHANNELS 3 Zrotation Xrotation Yrotation
    JOINT LeftLeg
    {
      OFFSET 0 -44.1113 0
      CHANNELS 3 Zrotation Xrotation Yrotation
      JOINT LeftFoot
      {
        OFFSET 0 -36.1829 0
        CHANNELS 3 Zrotation Xrotation Yrotation
        JOINT LeftToeBase
        {
          OFFSET 0 -4.84184 13
          CHANNELS 3 Zrotation Xrotation Yrotation
          End Site
          {
            OFFSET 0 1 6
          }
        }
      }
    }
  }
  JOINT RightUpLeg
  {
    OFFSET -9 -7.17245 0
    CHANNELS 3 Zrotation Xrotation Yrotation
    JOINT RightLeg
    {
      OFFSET 0 -44.0551 0
      CHANNELS 3 Zrotation Xrotation Yrotation
      JOINT RightFoot
      {
        OFFSET 0 -36.1469 0
        CHANNELS 3 Zrotation Xrotation Yrotation
        JOINT RightToeBase
        {
          OFFSET 0 -4.92256 13
          CHANNELS 3 Zrotation Xrotation Yrotation
          End Site
          {
            OFFSET 0 1 6
          }
        }
      }
    }
  }
}
MOTION
Frames:	8
Frame Time:	0.0333333
41.8996 93.8584 -164.714 0.468617 4.2596 -0.542627 0 0 0 5.97611 4.30674 5.11829 -10.4948 1.51016 6.86834 16.1702 -17.1157 -5.64248 -8.07981 7.42545 -0.566622 -25.6481 3.33485 -6.94242 -41.6225 22.4818 25.2584 36.8242 -11.4495 -104.848 -13.667 0.628192 -5.22667 19.0469 4.43828 13.7622 50.3928 8.37991 -2.17391 -11.3375 -0.343419 91.7123 7.65532 0.359628 5.36015 7.97684 -34.9674 5.80343 0.122905 31.9592 -15.3376 7.77004 -2.10092 0.132785 1.14438 -10.2791 -2.78922 3.02979 13.3456 -4.78872 -0.209691 52.5426 8.27317 -23.4367 -4.22957 -0.890927 4.93425 -18.7207 -3.23357 
42.5232 93.3952 -156.201 2.20711 3.00011 -1.49748 0 0 0 1.11093 5.05012 2.92016 -6.64786 0.332141 4.03864 18.3239 -13.5344 -3.13961 -8.99579 4.50784 2.67295 -29.4933 3.4582 -6.21252 -41.0314 20.092 13.55 32.6225 -7.69347 -101.813 -13.1536 0.446002 -3.87784 21.6576 4.40364 12.1053 51.7399 10.4751 -9.45664 -17.5433 2.99327 80.6205 8.01639 0.32679 4.69752 6.26927 -31.8034 5.23774 -0.144286 40.6172 -11.4657 7.93793 -5.6316 0.37769 1.57991 -13.7803 -5.44467 -0.727623 5.54475 -7.99298 -0.317851 66.0759 -2.27637 -25.809 -8.91677 -2.03812 4.63894 -17.6949 -4.01696 
42.6467 92.7704 -148.375 4.71297 0.646315 -2.12136 0 0 0 -5.44597 7.94525 0.776249 -1.50937 -0.493124 0.837618 17.7569 -13.8565 -0.10857 -7.38659 3.90147 4.91075 -32.0864 3.4456 -5.51807 -36.5259 19.0348 -3.70549 32.5624 -6.78546 -100.482 -13.6168 0.327335 -2.73622 23.0616 4.53624 11.8559 52.1953 5.19219 -18.5403 -23.6478 5.9261 76.7329 10.3298 0.431419 4.7719 4.36959 -25.9988 7.83307 0.0281575 46.8542 -13.7592 8.97637 -17.886 1.42035 1.40631 -6.96484 -5.17402 -4.16218 -3.28433 -9.41809 0.584366 76.7899 -14.3471 -28.5478 -15.515 -3.98887 4.15559 -15.8409 -6.74974 
42.3542 93.0932 -140.761 6.07986 -0.787458 -4.58964 0 0 0 -6.89656 9.48346 -0.624297 -2.04665 -0.651014 -0.843983 16.3692 -12.3831 2.70095 -5.97201 3.04377 7.11284 -29.5049 3.5313 -6.39664 -32.8589 16.0335 -18.7588 35.288 -6.81447 -99.5175 -13.337 0.34419 -2.94817 21.5322 3.92318 10.491 53.5925 -0.628151 -27.3058 -15.8504 5.20165 72.2908 10.0128 0.585588 6.67484 3.2387 -17.3189 10.1933 0.000576654 44.9681 -13.0978 13.2472 -19.6292 2.302 1.5307 -14.6949 -5.00296 -5.08956 -13.8475 -7.97479 0.241201 80.7928 -17.4798 -33.3905 -18.0592 -5.44074 4.12579 -15.6978 -6.81984 
42.1123 93.6848 -132.104 5.13656 -0.650226 -8.06215 0 0 0 -4.06398 7.1585 -2.68965 -3.42573 0.0260778 -2.53635 12.6371 -9.90398 6.12148 -3.82876 4.2797 9.43381 -26.1688 3.17523 -6.29809 -29.7339 11.6776 -25.8149 30.4335 -6.78626 -101.373 -11.7207 0.375439 -3.64183 19.5658 3.47898 9.7765 52.3259 -3.45599 -34.0758 -14.773 5.26816 70.803 9.93327 0.619763 7.12426 4.35548 -9.49481 13.3722 0.0299985 42.6062 -14.2267 15.065 -20.3272 2.69702 1.47408 -19.8983 -1.77903 -2.03354 -23.5696 -5.42171 0.097755 76.9739 -15.7336 -31.3124 -17.8328 -5.02569 3.84658 -14.3732 -5.50879 
41.2814 95.243 -122.848 5.8932 -2.58262 -11.1328 0 0 0 -4.83288 6.60903 -4.05919 -2.86165 0.209442 -4.11023 8.07907 -7.95 9.90661 -1.37929 4.82199 11.6197 -20.8664 2.70679 -6.39811 -30.1548 7.75493 -25.3291 30.5067 -8.96203 -104.81 -12.3564 0.558873 -5.16275 17.5046 3.07224 9.17582 50.2608 -3.80966 -39.6143 -15.2459 5.42648 70.8648 9.7466 0.629284 7.36941 2.48368 0.936356 16.5171 -0.16909 36.3123 -15.1231 11.967 -11.5351 1.30971 2.13412 -30.478 -3.21335 -0.188437 -26.625 -4.48921 0.0260785 64.5994 -14.9325 -31.9932 -14.0136 -4.03409 4.39144 -16.9471 -6.50166 
40.0758 96.8945 -113.201 6.47061 -4.43509 -13.2833 0 0 0 -5.46527 5.22383 -5.13003 -2.41693 1.13588 -5.21227 4.8919 -6.7077 12.9501 0.287625 5.55002 13.4365 -15.7631 2.2265 -6.33002 -28.4596 5.57926 -22.4569 30.5262 -11.4204 -108.562 -13.3007 0.586405 -5.03456 15.8932 3.15267 10.34 48.3641 -3.6092 -44.938 -14.9995 5.25258 71.1363 9.99557 0.646908 7.38606 1.15818 8.73119 15.6238 -0.89135 32.3668 -16.7872 6.16409 3.33894 -0.213092 1.92217 -37.2096 -7.26408 1.89545 -25.308 -4.9826 -0.327314 47.1534 -10.968 -28.737 -9.3584 -2.43673 4.08436 -15.5273 -6.83064 
38.7599 97.6532 -103.624 7.3511 -5.01574 -15.1994 0 0 0 -4.72686 2.47708 -5.29031 -4.43049 1.84076 -4.85018 3.39537 -4.96804 14.234 1.80552 5.70825 14.0159 -11.6785 1.71326 -5.57955 -27.4196 5.75461 -22.0453 30.5779 -12.529 -110.16 -14.1442 0.644531 -5.16989 14.3039 3.20301 11.4995 48.8977 -3.35056 -49.8818 -11.6628 3.96009 71.5008 9.45368 0.611363 7.38422 0.78717 10.9443 13.2381 -0.815777 36.379 -23.0908 4.9186 8.70471 -0.390659 1.79859 -24.637 -4.21465 3.4797 -22.7658 -5.71977 0.147537 29.012 -2.56706 -22.5131 -1.1741 -0.253462 4.03214 -15.1708 -4.70678 
